/* XPM */
static char * pourlinux_xpm[] = {
"48 48 3 1",
" 	c None",
".	c #1C86BB",
"+	c #000000",
"                                                ",
"                           ..                   ",
"                         ....                   ",
"                       ......                   ",
"                     .........                  ",
"                   ......  ....                 ",
"                 ......     ...                 ",
"               ......        ....               ",
"            .......           ...........       ",
"       ..........              ..........       ",
"       .......                    .......       ",
"        ..                                      ",
"                     ++++++                     ",
"                  ++++++++++++                  ",
"               ++++++++++++++++++               ",
"              ++++++++++++++++++++              ",
"             ++++++++++++++++++++++             ",
"            ++++++++++++++++++++++++            ",
"           ++++++++++++++++++++++++++           ",
"          +++++++++++      +++++++++++          ",
"         ++++++++++          ++++++++++         ",
"         ++++++++              ++++++++         ",
"        ++++++++                ++++++++        ",
"        ++++++++                ++++++++        ",
"        +++++++                  +++++++        ",
"       ++++++++                  ++++++++       ",
"       +++++++                    +++++++       ",
"       +++++++                    +++++++       ",
"       +++++++                    +++++++       ",
"       +++++++      ++     +++    +++++++       ",
"       +++++++    ++++++  +++++   +++++++       ",
"       +++++++   +++++++++++++    +++++++       ",
"       +++++++ ++++++++++++++     +++++++       ",
"       +++++++ +++++++++++++      +++++++       ",
"        +++++++  +++++++++++     ++++++++       ",
"        +++++++  +++  +++++      +++++++        ",
"        ++++++++ +++ ++   +     ++++++++        ",
"         +++++++++++ +    +    +++++++++        ",
"         +++++++++++++    +   +++++++++         ",
"          +++++++++++     +  +++++++++          ",
"          +++++++++++     ++++++++++++          ",
"           ++++++++++++++++++++++++++           ",
"            ++++++++++++++++++++++++            ",
"             ++++++++++++++++++++++             ",
"              ++++++++++++++++++++              ",
"                ++++++++++++++++                ",
"                  ++++++++++++                  ",
"                      ++++                      "};
